M48
;Layer_Color=9474304
;FILE_FORMAT=2:5
INCH,LZ
;TYPE=PLATED
T1F00S00C0.02800
T2F00S00C0.03150
T3F00S00C0.03543
T4F00S00C0.03937
T5F00S00C0.04016
T6F00S00C0.05118
%
T01
X0119Y0025
X0151Y0035
X0089Y0068
X01256Y02021
X01941Y01495
T02
X011811Y0054134
Y0063976
X011311Y010311
X010311
X009311
X008311
X007311
X006311
Y013311
X007311
X008311
X009311
X010311
X011311
X012311
X013311
X014311
X015311
X016311
X017311
X018311
Y010311
X017311
X016311
X015311
X014311
X013311
X012311
X0125984Y0151181
X0110236
X0094488
Y0191339
X0110236
X0125984
X0141732
X0176102Y019685
X0186102
X0199724
X0209724
X0141732Y0151181
X0059842Y0159843
Y0174803
X0056299Y0206693
X006811
X0079921
X0044094Y0174803
Y0159843
X002874
Y0174803
X0031496Y0131398
X005311Y013311
Y010311
X0031496Y0104823
T03
X0011811Y011311
Y011811
Y012311
T04
X0009843Y0009843
X0161417Y0049055
X0192913
Y0059055
Y0069055
X0161417
Y0059055
X0038386Y0193898
X0020669
Y0219488
X0038386
X0226378Y0226378
T05
X006874Y0011811
X007874
X008874
X010311
X011311
X012311
X013311
X014748
X015748
X016748
X012311Y022441
X011311
T06
X0025197Y0035433
X0073228
Y0082677
X0025197
X0017323Y0059055
M30
