G04 Layer_Color=8388736*
%FSLAX25Y25*%
%MOIN*%
G70*
G01*
G75*
%ADD28R,0.07099X0.07099*%
%ADD29C,0.07099*%
%ADD30C,0.06706*%
%ADD31R,0.06706X0.06706*%
%ADD32R,0.06706X0.06706*%
%ADD33O,0.08674X0.04737*%
%ADD34O,0.08674X0.04737*%
%ADD35C,0.07887*%
%ADD36C,0.07099*%
%ADD37C,0.12611*%
%ADD38C,0.06784*%
%ADD39R,0.06784X0.06784*%
%ADD40C,0.06800*%
D28*
X192913Y49055D02*
D03*
X161417Y69055D02*
D03*
D29*
X192913Y59055D02*
D03*
Y69055D02*
D03*
X161417Y59055D02*
D03*
Y49055D02*
D03*
D30*
X118110Y63976D02*
D03*
X173110Y133110D02*
D03*
X163110D02*
D03*
X153110D02*
D03*
X143110D02*
D03*
X133110D02*
D03*
X123110D02*
D03*
X113110D02*
D03*
X103110D02*
D03*
X93110D02*
D03*
X83110D02*
D03*
X73110D02*
D03*
X63110D02*
D03*
X53110D02*
D03*
Y103110D02*
D03*
X63110D02*
D03*
X73110D02*
D03*
X83110D02*
D03*
X93110D02*
D03*
X103110D02*
D03*
X113110D02*
D03*
X123110D02*
D03*
X133110D02*
D03*
X143110D02*
D03*
X153110D02*
D03*
X163110D02*
D03*
X173110D02*
D03*
X183110D02*
D03*
X79921Y206693D02*
D03*
X68110D02*
D03*
X186102Y196850D02*
D03*
X209724D02*
D03*
X28740Y174803D02*
D03*
Y159843D02*
D03*
X44094D02*
D03*
Y174803D02*
D03*
X59842D02*
D03*
Y159843D02*
D03*
X94488Y151181D02*
D03*
Y191339D02*
D03*
X110236Y151181D02*
D03*
Y191339D02*
D03*
X141732Y151181D02*
D03*
Y191339D02*
D03*
X125984Y151181D02*
D03*
Y191339D02*
D03*
X20669Y219488D02*
D03*
Y193898D02*
D03*
X38386D02*
D03*
X31496Y131398D02*
D03*
Y104823D02*
D03*
D31*
X118110Y54134D02*
D03*
X38386Y219488D02*
D03*
D32*
X183110Y133110D02*
D03*
X56299Y206693D02*
D03*
D33*
X11811Y123110D02*
D03*
Y113110D02*
D03*
D34*
Y118110D02*
D03*
D35*
X17323Y59055D02*
D03*
X25197Y35433D02*
D03*
Y82677D02*
D03*
X73228Y35433D02*
D03*
Y82677D02*
D03*
D36*
X176102Y196850D02*
D03*
X199724D02*
D03*
D37*
X9843Y9843D02*
D03*
X226378Y226378D02*
D03*
D38*
X123110Y224410D02*
D03*
X103110Y11811D02*
D03*
X113110D02*
D03*
X123110D02*
D03*
X78740D02*
D03*
X68740D02*
D03*
X157480D02*
D03*
X147480D02*
D03*
D39*
X113110Y224410D02*
D03*
X133110Y11811D02*
D03*
X88740D02*
D03*
X167480D02*
D03*
D40*
X125600Y202100D02*
D03*
X194100Y149500D02*
D03*
X119000Y25000D02*
D03*
X89000Y68000D02*
D03*
X151000Y35000D02*
D03*
M02*
