G04 Layer_Color=65535*
%FSLAX25Y25*%
%MOIN*%
G70*
G01*
G75*
%ADD24C,0.00984*%
%ADD25C,0.01000*%
%ADD26C,0.00787*%
%ADD27C,0.00100*%
D24*
X199508Y41339D02*
G03*
X199508Y41339I-492J0D01*
G01*
X6988Y129252D02*
G03*
X6988Y129252I-492J0D01*
G01*
X155807Y76772D02*
G03*
X155807Y76772I-492J0D01*
G01*
D25*
X130513Y59055D02*
G03*
X130513Y59055I-12403J0D01*
G01*
X188110Y120355D02*
G03*
X188110Y115866I0J-2244D01*
G01*
X186498Y125236D02*
G03*
X186498Y125236I-1419J0D01*
G01*
X185866D02*
G03*
X185866Y125236I-787J0D01*
G01*
X185472D02*
G03*
X185472Y125236I-394J0D01*
G01*
X189409Y133110D02*
G03*
X189409Y133110I-394J0D01*
G01*
X42913Y206693D02*
G03*
X42913Y206693I-394J0D01*
G01*
X187008Y212402D02*
G03*
X175197Y212402I-5906J0D01*
G01*
X210630D02*
G03*
X198819Y212402I-5906J0D01*
G01*
X38780Y224410D02*
G03*
X38780Y224410I-394J0D01*
G01*
X118110Y41339D02*
Y45276D01*
X116142Y43307D02*
X120079D01*
X48110Y128110D02*
X188110D01*
X48110Y108110D02*
X188110D01*
X48110D02*
Y128110D01*
X188110Y123110D02*
Y128110D01*
Y108110D02*
Y113110D01*
Y120610D02*
Y123110D01*
Y113110D02*
Y115610D01*
X11811Y28543D02*
Y89567D01*
X86614D01*
Y28543D02*
Y89567D01*
X11811Y28543D02*
X86614D01*
X68110Y217717D02*
X91732D01*
Y195669D02*
Y217717D01*
X44488Y195669D02*
X91732D01*
X44488D02*
Y217717D01*
X68110D01*
X171181Y191929D02*
Y201772D01*
X191024D01*
Y191929D02*
Y201772D01*
X171181Y191929D02*
X191024D01*
X175197Y201772D02*
Y212402D01*
X187008Y201772D02*
Y212402D01*
X194803Y191929D02*
Y201772D01*
X214646D01*
Y191929D02*
Y201772D01*
X194803Y191929D02*
X214646D01*
X198819Y201772D02*
Y212402D01*
X210630Y201772D02*
Y212402D01*
X23819Y179527D02*
X33661D01*
Y155118D02*
Y179527D01*
X23819Y155118D02*
X33661D01*
X23819D02*
Y179527D01*
X39173Y155118D02*
X49016D01*
X39173D02*
Y179527D01*
X49016D01*
Y155118D02*
Y179527D01*
X54921D02*
X64764D01*
Y155118D02*
Y179527D01*
X54921Y155118D02*
X64764D01*
X54921D02*
Y179527D01*
X94488Y184646D02*
Y186614D01*
Y155905D02*
Y157874D01*
X89764Y184646D02*
X99213D01*
X89764Y157874D02*
Y184646D01*
X99213Y157874D02*
Y184646D01*
X89764Y157874D02*
X99213D01*
X110236Y184646D02*
Y186614D01*
Y155905D02*
Y157874D01*
X105512Y184646D02*
X114961D01*
X105512Y157874D02*
Y184646D01*
X114961Y157874D02*
Y184646D01*
X105512Y157874D02*
X114961D01*
X141732Y184646D02*
Y186614D01*
Y155905D02*
Y157874D01*
X137008Y184646D02*
X146457D01*
X137008Y157874D02*
Y184646D01*
X146457Y157874D02*
Y184646D01*
X137008Y157874D02*
X146457D01*
X125984Y184646D02*
Y186614D01*
Y155905D02*
Y157874D01*
X121260Y184646D02*
X130709D01*
X121260Y157874D02*
Y184646D01*
X130709Y157874D02*
Y184646D01*
X121260Y157874D02*
X130709D01*
X127602Y219488D02*
X127610D01*
X127614Y229331D01*
X108610Y219488D02*
X127602D01*
X108606Y229331D02*
X127610D01*
X108606Y219488D02*
Y229331D01*
X98606Y6890D02*
Y16732D01*
X137614Y6890D02*
Y16732D01*
X98606D02*
X137614D01*
X98606Y6890D02*
X137614D01*
X93244D02*
Y16732D01*
X64236D02*
X93244D01*
X64236Y6890D02*
X93244D01*
X64236D02*
Y16732D01*
X171984Y6890D02*
Y16732D01*
X142976D02*
X171984D01*
X142976Y6890D02*
X171984D01*
X142976D02*
Y16732D01*
X19685Y214567D02*
X39370D01*
Y198819D02*
Y214567D01*
X19685Y198819D02*
X39370D01*
X19685D02*
Y214567D01*
X27559Y124508D02*
X35433D01*
Y111811D02*
Y124508D01*
X27559Y111811D02*
X35433D01*
X27559D02*
Y124508D01*
Y122047D02*
X35433D01*
X31496Y124508D02*
Y126894D01*
Y109327D02*
Y111811D01*
X110999Y78998D02*
X109999Y79998D01*
X108000D01*
X107000Y78998D01*
Y75000D01*
X108000Y74000D01*
X109999D01*
X110999Y75000D01*
X112998Y78998D02*
X113998Y79998D01*
X115997D01*
X116997Y78998D01*
Y77999D01*
X115997Y76999D01*
X114997D01*
X115997D01*
X116997Y75999D01*
Y75000D01*
X115997Y74000D01*
X113998D01*
X112998Y75000D01*
X96161Y89105D02*
X90163D01*
X92162D01*
X96161Y85106D01*
X93162Y88105D01*
X90163Y85106D01*
Y83107D02*
Y81108D01*
Y82107D01*
X96161D01*
X95161Y83107D01*
X13999Y131000D02*
Y134998D01*
X12999Y135998D01*
X11000D01*
X10000Y134998D01*
Y131000D01*
X11000Y130000D01*
X12999D01*
X11999Y131999D02*
X13999Y130000D01*
X12999D02*
X13999Y131000D01*
X15998Y130000D02*
X17997D01*
X16998D01*
Y135998D01*
X15998Y134998D01*
X65370Y220000D02*
Y225998D01*
X68369D01*
X69369Y224998D01*
Y222999D01*
X68369Y221999D01*
X65370D01*
X72368Y220000D02*
X74367D01*
X75367Y221000D01*
Y222999D01*
X74367Y223999D01*
X72368D01*
X71368Y222999D01*
Y221000D01*
X72368Y220000D01*
X77366Y223999D02*
Y221000D01*
X78366Y220000D01*
X79365Y221000D01*
X80365Y220000D01*
X81365Y221000D01*
Y223999D01*
X86363Y220000D02*
X84364D01*
X83364Y221000D01*
Y222999D01*
X84364Y223999D01*
X86363D01*
X87363Y222999D01*
Y221999D01*
X83364D01*
X89362Y223999D02*
Y220000D01*
Y221999D01*
X90362Y222999D01*
X91362Y223999D01*
X92361D01*
X48369Y224998D02*
X47369Y225998D01*
X45370D01*
X44370Y224998D01*
Y223999D01*
X45370Y222999D01*
X47369D01*
X48369Y221999D01*
Y221000D01*
X47369Y220000D01*
X45370D01*
X44370Y221000D01*
X54367Y220000D02*
X50368D01*
X54367Y223999D01*
Y224998D01*
X53367Y225998D01*
X51368D01*
X50368Y224998D01*
X196998Y128000D02*
X192000D01*
X191000Y127000D01*
Y125001D01*
X192000Y124001D01*
X196998D01*
X191000Y122002D02*
Y120003D01*
Y121002D01*
X196998D01*
X195998Y122002D01*
X153000Y88998D02*
Y84000D01*
X154000Y83000D01*
X155999D01*
X156999Y84000D01*
Y88998D01*
X162997Y83000D02*
X158998D01*
X162997Y86999D01*
Y87998D01*
X161997Y88998D01*
X159998D01*
X158998Y87998D01*
X183000Y88998D02*
Y84000D01*
X184000Y83000D01*
X185999D01*
X186999Y84000D01*
Y88998D01*
X191997Y83000D02*
Y88998D01*
X188998Y85999D01*
X192997D01*
X171652Y182400D02*
Y188399D01*
X174651D01*
X175651Y187399D01*
Y185399D01*
X174651Y184400D01*
X171652D01*
X173652D02*
X175651Y182400D01*
X181649Y188399D02*
X177650D01*
Y182400D01*
X181649D01*
X177650Y185399D02*
X179650D01*
X187647Y187399D02*
X186647Y188399D01*
X184648D01*
X183649Y187399D01*
Y186399D01*
X184648Y185399D01*
X186647D01*
X187647Y184400D01*
Y183400D01*
X186647Y182400D01*
X184648D01*
X183649Y183400D01*
X173000Y226998D02*
Y221000D01*
X175999D01*
X176999Y222000D01*
Y225998D01*
X175999Y226998D01*
X173000D01*
X178998Y221000D02*
X180997D01*
X179998D01*
Y226998D01*
X178998Y225998D01*
X195274Y182400D02*
Y188399D01*
X198273D01*
X199273Y187399D01*
Y185399D01*
X198273Y184400D01*
X195274D01*
X201273Y188399D02*
Y182400D01*
X203272Y184400D01*
X205271Y182400D01*
Y188399D01*
X207271Y182400D02*
Y188399D01*
X210270D01*
X211269Y187399D01*
Y185399D01*
X210270Y184400D01*
X207271D01*
X209270D02*
X211269Y182400D01*
X197000Y226998D02*
Y221000D01*
X199999D01*
X200999Y222000D01*
Y225998D01*
X199999Y226998D01*
X197000D01*
X206997Y221000D02*
X202998D01*
X206997Y224999D01*
Y225998D01*
X205997Y226998D01*
X203998D01*
X202998Y225998D01*
X28014Y186888D02*
X27015Y187888D01*
X25015D01*
X24016Y186888D01*
Y182889D01*
X25015Y181890D01*
X27015D01*
X28014Y182889D01*
X30014Y181890D02*
X32013D01*
X31014D01*
Y187888D01*
X30014Y186888D01*
X59117D02*
X58117Y187888D01*
X56118D01*
X55118Y186888D01*
Y182889D01*
X56118Y181890D01*
X58117D01*
X59117Y182889D01*
X65115Y181890D02*
X61116D01*
X65115Y185889D01*
Y186888D01*
X64115Y187888D01*
X62116D01*
X61116Y186888D01*
X43369D02*
X42369Y187888D01*
X40370D01*
X39370Y186888D01*
Y182889D01*
X40370Y181890D01*
X42369D01*
X43369Y182889D01*
X48367Y181890D02*
Y187888D01*
X45368Y184889D01*
X49367D01*
X114173Y145669D02*
Y139671D01*
X111174D01*
X110175Y140671D01*
Y142670D01*
X111174Y143670D01*
X114173D01*
X112174D02*
X110175Y145669D01*
X108175D02*
X106176D01*
X107176D01*
Y139671D01*
X108175Y140671D01*
X98425Y145669D02*
Y139671D01*
X95426D01*
X94427Y140671D01*
Y142670D01*
X95426Y143670D01*
X98425D01*
X96426D02*
X94427Y145669D01*
X88428D02*
X92427D01*
X88428Y141671D01*
Y140671D01*
X89428Y139671D01*
X91427D01*
X92427Y140671D01*
X129921Y145669D02*
Y139671D01*
X126922D01*
X125923Y140671D01*
Y142670D01*
X126922Y143670D01*
X129921D01*
X127922D02*
X125923Y145669D01*
X123923Y140671D02*
X122924Y139671D01*
X120924D01*
X119924Y140671D01*
Y141671D01*
X120924Y142670D01*
X121924D01*
X120924D01*
X119924Y143670D01*
Y144670D01*
X120924Y145669D01*
X122924D01*
X123923Y144670D01*
X145669Y145669D02*
Y139671D01*
X142670D01*
X141671Y140671D01*
Y142670D01*
X142670Y143670D01*
X145669D01*
X143670D02*
X141671Y145669D01*
X136672D02*
Y139671D01*
X139671Y142670D01*
X135672D01*
X129921Y222684D02*
X133920D01*
X131921Y224683D02*
Y220685D01*
X135919D02*
X136919Y219685D01*
X138918D01*
X139918Y220685D01*
Y224683D01*
X138918Y225683D01*
X136919D01*
X135919Y224683D01*
Y223684D01*
X136919Y222684D01*
X139918D01*
X141917Y225683D02*
Y221684D01*
X143917Y219685D01*
X145916Y221684D01*
Y225683D01*
X127559Y217323D02*
Y211325D01*
X124560D01*
X123560Y212324D01*
Y214324D01*
X124560Y215323D01*
X127559D01*
X121561Y217323D02*
X119562D01*
X120561D01*
Y211325D01*
X121561Y212324D01*
X127559Y24896D02*
Y18898D01*
X130558D01*
X131558Y19897D01*
Y20897D01*
X130558Y21897D01*
X127559D01*
X130558D01*
X131558Y22896D01*
Y23896D01*
X130558Y24896D01*
X127559D01*
X133557D02*
X137556D01*
X135556D01*
Y18898D01*
X99213D02*
Y24896D01*
X102212D01*
X103211Y23896D01*
Y21897D01*
X102212Y20897D01*
X99213D01*
X108210Y18898D02*
Y24896D01*
X105211Y21897D01*
X109209D01*
X143307Y18898D02*
Y24896D01*
X145306Y22896D01*
X147306Y24896D01*
Y18898D01*
X153304Y19897D02*
Y23896D01*
X152304Y24896D01*
X150305D01*
X149305Y23896D01*
Y19897D01*
X150305Y18898D01*
X152304D01*
X151304Y20897D02*
X153304Y18898D01*
X152304D02*
X153304Y19897D01*
X159302Y24896D02*
X155303D01*
Y21897D01*
X157303Y22896D01*
X158302D01*
X159302Y21897D01*
Y19897D01*
X158302Y18898D01*
X156303D01*
X155303Y19897D01*
X174409Y16535D02*
X180408D01*
Y13536D01*
X179408Y12537D01*
X177409D01*
X176409Y13536D01*
Y16535D01*
X174409Y6539D02*
Y10537D01*
X178408Y6539D01*
X179408D01*
X180408Y7538D01*
Y9538D01*
X179408Y10537D01*
X64567Y18898D02*
Y24896D01*
X66566Y22896D01*
X68566Y24896D01*
Y18898D01*
X74564Y19897D02*
Y23896D01*
X73564Y24896D01*
X71565D01*
X70565Y23896D01*
Y19897D01*
X71565Y18898D01*
X73564D01*
X72564Y20897D02*
X74564Y18898D01*
X73564D02*
X74564Y19897D01*
X76563D02*
X77563Y18898D01*
X79562D01*
X80562Y19897D01*
Y23896D01*
X79562Y24896D01*
X77563D01*
X76563Y23896D01*
Y22896D01*
X77563Y21897D01*
X80562D01*
X61811Y7087D02*
X55813D01*
Y10086D01*
X56813Y11085D01*
X58812D01*
X59812Y10086D01*
Y7087D01*
X56813Y13085D02*
X55813Y14084D01*
Y16084D01*
X56813Y17083D01*
X57812D01*
X58812Y16084D01*
Y15084D01*
Y16084D01*
X59812Y17083D01*
X60811D01*
X61811Y16084D01*
Y14084D01*
X60811Y13085D01*
X15354Y194488D02*
X9356D01*
Y197487D01*
X10356Y198487D01*
X12355D01*
X13355Y197487D01*
Y194488D01*
Y196487D02*
X15354Y198487D01*
Y203485D02*
Y201486D01*
X14355Y200486D01*
X12355D01*
X11356Y201486D01*
Y203485D01*
X12355Y204485D01*
X13355D01*
Y200486D01*
X15354Y206484D02*
Y209483D01*
X14355Y210483D01*
X13355Y209483D01*
Y207484D01*
X12355Y206484D01*
X11356Y207484D01*
Y210483D01*
X15354Y215481D02*
Y213482D01*
X14355Y212482D01*
X12355D01*
X11356Y213482D01*
Y215481D01*
X12355Y216481D01*
X13355D01*
Y212482D01*
X10356Y219480D02*
X11356D01*
Y218480D01*
Y220480D01*
Y219480D01*
X14355D01*
X15354Y220480D01*
X23684Y229408D02*
X22684Y230408D01*
X20685D01*
X19685Y229408D01*
Y228408D01*
X20685Y227409D01*
X22684D01*
X23684Y226409D01*
Y225409D01*
X22684Y224410D01*
X20685D01*
X19685Y225409D01*
X25683Y224410D02*
X27683D01*
X26683D01*
Y230408D01*
X25683Y229408D01*
X43793Y123228D02*
X37795D01*
Y120229D01*
X38795Y119230D01*
X42794D01*
X43793Y120229D01*
Y123228D01*
X42794Y117230D02*
X43793Y116231D01*
Y114231D01*
X42794Y113232D01*
X41794D01*
X40794Y114231D01*
Y115231D01*
Y114231D01*
X39795Y113232D01*
X38795D01*
X37795Y114231D01*
Y116231D01*
X38795Y117230D01*
X205900Y151199D02*
X207899Y147200D01*
X209899Y151199D01*
X211898Y147200D02*
X213897D01*
X212898D01*
Y153198D01*
X211898Y152198D01*
X216896Y147200D02*
Y148200D01*
X217896D01*
Y147200D01*
X216896D01*
X221895Y152198D02*
X222895Y153198D01*
X224894D01*
X225893Y152198D01*
Y148200D01*
X224894Y147200D01*
X222895D01*
X221895Y148200D01*
Y152198D01*
D26*
X5906Y110315D02*
G03*
X5906Y125905I5906J7795D01*
G01*
X182283Y79331D02*
X201575D01*
X182283Y38780D02*
X201575D01*
Y79331D01*
X182283Y38780D02*
Y79331D01*
X184252Y38780D02*
Y79331D01*
X5906Y110315D02*
Y125905D01*
X152756Y38780D02*
X172047D01*
X152756Y79331D02*
X172047D01*
X152756Y38780D02*
Y79331D01*
X172047Y38780D02*
Y79331D01*
X170079Y38780D02*
Y79331D01*
D27*
X224400Y156500D02*
X230400D01*
X224300Y156600D02*
X230500D01*
X224200Y156700D02*
X230500D01*
X224200Y156800D02*
X230500D01*
X224200Y156900D02*
X230500D01*
X224200Y157000D02*
X230500D01*
X224200Y157100D02*
X230500D01*
X224200Y157200D02*
X230400D01*
X224200Y157300D02*
X225000D01*
X224200Y157400D02*
X225000D01*
X224200Y157500D02*
X225000D01*
X224200Y157600D02*
X225100D01*
X224200Y157700D02*
X225100D01*
X224200Y157800D02*
X225300D01*
X224200Y157900D02*
X229900D01*
X224300Y158000D02*
X230100D01*
X215000D02*
X218300D01*
X224300Y158100D02*
X230200D01*
X214600D02*
X218800D01*
X224400Y158200D02*
X230300D01*
X214200D02*
X219100D01*
X224400Y158300D02*
X230400D01*
X213900D02*
X219500D01*
X224500Y158400D02*
X230400D01*
X213600D02*
X219800D01*
X224700Y158500D02*
X230500D01*
X213300D02*
X220000D01*
X224900Y158600D02*
X230500D01*
X212700D02*
X220300D01*
X229600Y158700D02*
X230500D01*
X212500D02*
X220500D01*
X229700Y158800D02*
X230500D01*
X212300D02*
X220700D01*
X229700Y158900D02*
X230500D01*
X212100D02*
X220900D01*
X229700Y159000D02*
X230500D01*
X211900D02*
X221100D01*
X229600Y159100D02*
X230500D01*
X213100D02*
X221300D01*
X211800D02*
X213000D01*
X224400Y159200D02*
X230500D01*
X213200D02*
X221500D01*
X211600D02*
X212800D01*
X224300Y159300D02*
X230500D01*
X213300D02*
X221700D01*
X211500D02*
X212600D01*
X224200Y159400D02*
X230400D01*
X213300D02*
X221800D01*
X211400D02*
X212400D01*
X224200Y159500D02*
X230400D01*
X213400D02*
X222000D01*
X211300D02*
X212200D01*
X224200Y159600D02*
X230300D01*
X213500D02*
X222100D01*
X211200D02*
X212100D01*
X224200Y159700D02*
X230200D01*
X213600D02*
X222300D01*
X211100D02*
X211900D01*
X224300Y159800D02*
X230100D01*
X213700D02*
X222400D01*
X210900D02*
X211800D01*
X224300Y159900D02*
X229900D01*
X213800D02*
X222500D01*
X210800D02*
X211800D01*
X224500Y160000D02*
X229600D01*
X213900D02*
X222600D01*
X210700D02*
X211800D01*
X203300D02*
X204200D01*
X189500D02*
X190500D01*
X173600D02*
X186600D01*
X214000Y160100D02*
X222800D01*
X210500D02*
X211800D01*
X203100D02*
X204400D01*
X189400D02*
X190600D01*
X173300D02*
X186700D01*
X214100Y160200D02*
X222900D01*
X210400D02*
X211800D01*
X203000D02*
X204500D01*
X189300D02*
X190700D01*
X173100D02*
X186800D01*
X214200Y160300D02*
X223000D01*
X210300D02*
X211800D01*
X202900D02*
X204600D01*
X189200D02*
X190800D01*
X172900D02*
X186900D01*
X167100D02*
X168100D01*
X152100D02*
X153100D01*
X214300Y160400D02*
X223100D01*
X210200D02*
X211900D01*
X202800D02*
X204600D01*
X189100D02*
X190900D01*
X172800D02*
X187000D01*
X166900D02*
X168300D01*
X151900D02*
X153200D01*
X214400Y160500D02*
X223200D01*
X210100D02*
X211900D01*
X202700D02*
X204700D01*
X189100D02*
X190900D01*
X172600D02*
X187000D01*
X166800D02*
X168400D01*
X151800D02*
X153400D01*
X214500Y160600D02*
X223300D01*
X210000D02*
X211900D01*
X202700D02*
X204700D01*
X189000D02*
X191000D01*
X172500D02*
X187100D01*
X166700D02*
X168500D01*
X151700D02*
X153500D01*
X214500Y160700D02*
X223400D01*
X209900D02*
X211900D01*
X202600D02*
X204700D01*
X189000D02*
X191000D01*
X172400D02*
X187100D01*
X166600D02*
X168600D01*
X151600D02*
X153600D01*
X214600Y160800D02*
X223500D01*
X209800D02*
X211900D01*
X202500D02*
X204700D01*
X189000D02*
X191000D01*
X172300D02*
X187100D01*
X166500D02*
X168600D01*
X151500D02*
X153600D01*
X214700Y160900D02*
X223600D01*
X209700D02*
X211900D01*
X202400D02*
X204700D01*
X189000D02*
X191000D01*
X172200D02*
X187100D01*
X166400D02*
X168700D01*
X151500D02*
X153700D01*
X214800Y161000D02*
X223700D01*
X209600D02*
X211900D01*
X202300D02*
X204700D01*
X189000D02*
X191000D01*
X172100D02*
X187100D01*
X166400D02*
X168700D01*
X151400D02*
X153800D01*
X214900Y161100D02*
X223800D01*
X209500D02*
X211900D01*
X202200D02*
X204700D01*
X189000D02*
X191000D01*
X172000D02*
X187100D01*
X166300D02*
X168800D01*
X151400D02*
X153900D01*
X215000Y161200D02*
X223900D01*
X209400D02*
X211900D01*
X202100D02*
X204700D01*
X189000D02*
X191000D01*
X171900D02*
X187100D01*
X166200D02*
X168800D01*
X151400D02*
X153900D01*
X215100Y161300D02*
X224000D01*
X209400D02*
X211900D01*
X202000D02*
X204700D01*
X189000D02*
X191000D01*
X171900D02*
X187000D01*
X166100D02*
X168800D01*
X151400D02*
X154000D01*
X215200Y161400D02*
X224000D01*
X209300D02*
X211900D01*
X201900D02*
X204600D01*
X189000D02*
X191000D01*
X171800D02*
X187000D01*
X166100D02*
X168800D01*
X159500D02*
X160600D01*
X151400D02*
X154100D01*
X215200Y161500D02*
X224200D01*
X209200D02*
X212000D01*
X201800D02*
X204500D01*
X189000D02*
X191000D01*
X171700D02*
X186900D01*
X166000D02*
X168800D01*
X159300D02*
X160800D01*
X151400D02*
X154200D01*
X215200Y161600D02*
X224300D01*
X209100D02*
X212000D01*
X201700D02*
X204500D01*
X189000D02*
X191000D01*
X171700D02*
X186900D01*
X165900D02*
X168800D01*
X159200D02*
X161000D01*
X151400D02*
X154200D01*
X215200Y161700D02*
X224400D01*
X209000D02*
X212000D01*
X201500D02*
X204400D01*
X189000D02*
X191000D01*
X171600D02*
X186800D01*
X165800D02*
X168800D01*
X159000D02*
X161100D01*
X151400D02*
X154300D01*
X215200Y161800D02*
X224500D01*
X209000D02*
X212000D01*
X201400D02*
X204300D01*
X189000D02*
X191000D01*
X171500D02*
X186600D01*
X165800D02*
X168700D01*
X158900D02*
X161200D01*
X151400D02*
X154400D01*
X215300Y161900D02*
X224500D01*
X208900D02*
X212000D01*
X201300D02*
X204300D01*
X189000D02*
X191000D01*
X171500D02*
X186400D01*
X165700D02*
X168700D01*
X158800D02*
X161300D01*
X151400D02*
X154500D01*
X215400Y162000D02*
X224600D01*
X208800D02*
X212000D01*
X201100D02*
X204200D01*
X189000D02*
X191000D01*
X171400D02*
X174500D01*
X165600D02*
X168700D01*
X158800D02*
X161400D01*
X151500D02*
X154500D01*
X223900Y162100D02*
X224700D01*
X215600D02*
X223700D01*
X208800D02*
X212000D01*
X201000D02*
X204100D01*
X189000D02*
X191000D01*
X171400D02*
X174100D01*
X165500D02*
X168600D01*
X158700D02*
X161400D01*
X151500D02*
X154600D01*
X223900Y162200D02*
X224700D01*
X215700D02*
X223700D01*
X208700D02*
X212000D01*
X200800D02*
X204000D01*
X189000D02*
X191000D01*
X171300D02*
X174000D01*
X165500D02*
X168500D01*
X158700D02*
X161500D01*
X151600D02*
X154700D01*
X224000Y162300D02*
X224800D01*
X215800D02*
X223600D01*
X208600D02*
X212000D01*
X200600D02*
X203900D01*
X189000D02*
X191000D01*
X171300D02*
X173800D01*
X165400D02*
X168400D01*
X158600D02*
X161500D01*
X151700D02*
X154800D01*
X224100Y162400D02*
X224800D01*
X216000D02*
X223600D01*
X208600D02*
X212000D01*
X200500D02*
X203800D01*
X189000D02*
X191000D01*
X171300D02*
X173700D01*
X165300D02*
X168400D01*
X158600D02*
X161600D01*
X151800D02*
X154800D01*
X224100Y162500D02*
X224900D01*
X216100D02*
X223500D01*
X208500D02*
X212000D01*
X200300D02*
X203800D01*
X189000D02*
X191000D01*
X171200D02*
X173600D01*
X165200D02*
X168300D01*
X158600D02*
X161600D01*
X151800D02*
X154900D01*
X224200Y162600D02*
X225000D01*
X216200D02*
X223500D01*
X208500D02*
X212100D01*
X200000D02*
X203700D01*
X189000D02*
X191000D01*
X171200D02*
X173500D01*
X165200D02*
X168200D01*
X158500D02*
X161600D01*
X151900D02*
X155000D01*
X224300Y162700D02*
X225000D01*
X216200D02*
X223400D01*
X208400D02*
X212100D01*
X199800D02*
X203600D01*
X189000D02*
X191000D01*
X171200D02*
X173400D01*
X165100D02*
X168200D01*
X158500D02*
X161600D01*
X152000D02*
X155100D01*
X224300Y162800D02*
X225100D01*
X216300D02*
X223400D01*
X208300D02*
X212000D01*
X199500D02*
X203500D01*
X189000D02*
X191000D01*
X171100D02*
X173300D01*
X165000D02*
X168100D01*
X158500D02*
X161600D01*
X152100D02*
X155100D01*
X224400Y162900D02*
X225100D01*
X216300D02*
X223300D01*
X208300D02*
X211800D01*
X199200D02*
X203400D01*
X189000D02*
X191000D01*
X171100D02*
X173200D01*
X164900D02*
X168000D01*
X158500D02*
X161600D01*
X152100D02*
X155200D01*
X224400Y163000D02*
X225200D01*
X216300D02*
X223200D01*
X208200D02*
X211700D01*
X198900D02*
X203300D01*
X189000D02*
X191000D01*
X171100D02*
X173200D01*
X164900D02*
X167900D01*
X158500D02*
X161600D01*
X152200D02*
X155300D01*
X224500Y163100D02*
X225200D01*
X216300D02*
X223200D01*
X208200D02*
X211600D01*
X198400D02*
X203100D01*
X189000D02*
X191000D01*
X171000D02*
X173100D01*
X164800D02*
X167900D01*
X158500D02*
X161600D01*
X152300D02*
X155400D01*
X224600Y163200D02*
X225300D01*
X216400D02*
X223100D01*
X208100D02*
X211400D01*
X197700D02*
X203000D01*
X189000D02*
X191000D01*
X171000D02*
X173100D01*
X164700D02*
X167800D01*
X158500D02*
X161600D01*
X152400D02*
X155400D01*
X224600Y163300D02*
X225300D01*
X216400D02*
X223200D01*
X208100D02*
X211300D01*
X195900D02*
X202900D01*
X189000D02*
X191000D01*
X171000D02*
X173000D01*
X164600D02*
X167700D01*
X158600D02*
X161600D01*
X152400D02*
X155500D01*
X224700Y163400D02*
X225400D01*
X216400D02*
X223200D01*
X208000D02*
X211200D01*
X189000D02*
X202800D01*
X174800D02*
X185700D01*
X171000D02*
X173000D01*
X164600D02*
X167600D01*
X158600D02*
X161600D01*
X152500D02*
X155600D01*
X224700Y163500D02*
X225400D01*
X216400D02*
X223200D01*
X208000D02*
X211200D01*
X189000D02*
X202600D01*
X174700D02*
X185900D01*
X171000D02*
X173000D01*
X164500D02*
X167600D01*
X158600D02*
X161500D01*
X152600D02*
X155700D01*
X224800Y163600D02*
X225400D01*
X216500D02*
X223300D01*
X208000D02*
X211200D01*
X189000D02*
X202500D01*
X174500D02*
X186000D01*
X170900D02*
X173000D01*
X164400D02*
X167500D01*
X158700D02*
X161500D01*
X152700D02*
X155700D01*
X224800Y163700D02*
X225500D01*
X216600D02*
X223300D01*
X207900D02*
X211100D01*
X189000D02*
X202400D01*
X174500D02*
X186100D01*
X170900D02*
X172900D01*
X164300D02*
X167400D01*
X158700D02*
X161400D01*
X152700D02*
X155800D01*
X224800Y163800D02*
X225500D01*
X216600D02*
X223300D01*
X207900D02*
X211100D01*
X189000D02*
X202200D01*
X174400D02*
X186100D01*
X170900D02*
X172900D01*
X164300D02*
X167300D01*
X158800D02*
X161400D01*
X152800D02*
X155900D01*
X224900Y163900D02*
X225600D01*
X216700D02*
X223300D01*
X207800D02*
X211100D01*
X189000D02*
X202000D01*
X174300D02*
X186200D01*
X170900D02*
X172900D01*
X164200D02*
X167300D01*
X158900D02*
X161300D01*
X152900D02*
X156000D01*
X224900Y164000D02*
X225600D01*
X216800D02*
X223300D01*
X207800D02*
X211000D01*
X189000D02*
X201900D01*
X174300D02*
X186200D01*
X170900D02*
X172900D01*
X164100D02*
X167200D01*
X159000D02*
X161200D01*
X153000D02*
X156000D01*
X225000Y164100D02*
X225600D01*
X216900D02*
X223300D01*
X207800D02*
X211000D01*
X189000D02*
X201700D01*
X174300D02*
X186200D01*
X170900D02*
X172900D01*
X164000D02*
X167100D01*
X159100D02*
X161100D01*
X153000D02*
X156100D01*
X225000Y164200D02*
X225700D01*
X216900D02*
X223300D01*
X207700D02*
X210900D01*
X189000D02*
X201500D01*
X174300D02*
X186300D01*
X170900D02*
X172900D01*
X164000D02*
X167000D01*
X159200D02*
X160900D01*
X153100D02*
X156200D01*
X225000Y164300D02*
X225700D01*
X216900D02*
X223300D01*
X207700D02*
X210900D01*
X189000D02*
X201300D01*
X174300D02*
X186300D01*
X170900D02*
X172900D01*
X163900D02*
X167000D01*
X159400D02*
X160800D01*
X153200D02*
X156300D01*
X225100Y164400D02*
X225700D01*
X216900D02*
X223300D01*
X207600D02*
X210800D01*
X189000D02*
X201000D01*
X174300D02*
X186300D01*
X170900D02*
X172900D01*
X163800D02*
X166900D01*
X159700D02*
X160400D01*
X153300D02*
X156300D01*
X225100Y164500D02*
X225800D01*
X216900D02*
X223300D01*
X207600D02*
X210800D01*
X189000D02*
X200800D01*
X174300D02*
X186200D01*
X170900D02*
X172900D01*
X163700D02*
X166800D01*
X153300D02*
X156400D01*
X225100Y164600D02*
X225800D01*
X216900D02*
X223300D01*
X207600D02*
X210700D01*
X189000D02*
X200500D01*
X174300D02*
X186200D01*
X170900D02*
X172900D01*
X163700D02*
X166700D01*
X153400D02*
X156500D01*
X225200Y164700D02*
X225800D01*
X216900D02*
X223300D01*
X207500D02*
X210700D01*
X189000D02*
X200200D01*
X174300D02*
X186200D01*
X170900D02*
X172900D01*
X163600D02*
X166700D01*
X153500D02*
X156600D01*
X225200Y164800D02*
X225900D01*
X216900D02*
X223300D01*
X207500D02*
X210600D01*
X189000D02*
X199900D01*
X174400D02*
X186200D01*
X170900D02*
X172900D01*
X163500D02*
X166600D01*
X153500D02*
X156600D01*
X225200Y164900D02*
X225900D01*
X216900D02*
X223300D01*
X207500D02*
X210600D01*
X189000D02*
X199500D01*
X174400D02*
X186100D01*
X170900D02*
X172900D01*
X163400D02*
X166500D01*
X153600D02*
X156700D01*
X225300Y165000D02*
X225900D01*
X216900D02*
X223300D01*
X207500D02*
X210600D01*
X189000D02*
X199000D01*
X174500D02*
X186000D01*
X170900D02*
X173000D01*
X163400D02*
X166400D01*
X153700D02*
X156800D01*
X225300Y165100D02*
X225900D01*
X216800D02*
X223300D01*
X207400D02*
X210600D01*
X203300D02*
X204200D01*
X189000D02*
X198500D01*
X174600D02*
X185900D01*
X171000D02*
X173000D01*
X163300D02*
X166400D01*
X153800D02*
X156900D01*
X225300Y165200D02*
X226000D01*
X216400D02*
X223200D01*
X207400D02*
X210600D01*
X203100D02*
X204400D01*
X189000D02*
X197700D01*
X174700D02*
X185800D01*
X171000D02*
X173000D01*
X163200D02*
X166300D01*
X153800D02*
X156900D01*
X225300Y165300D02*
X226000D01*
X216100D02*
X223200D01*
X207400D02*
X210600D01*
X203000D02*
X204500D01*
X189000D02*
X196400D01*
X175000D02*
X185500D01*
X171000D02*
X173000D01*
X163100D02*
X166200D01*
X153900D02*
X157000D01*
X225400Y165400D02*
X226000D01*
X215800D02*
X223100D01*
X207400D02*
X210600D01*
X202900D02*
X204600D01*
X189000D02*
X191000D01*
X171000D02*
X173100D01*
X163100D02*
X166100D01*
X154000D02*
X157100D01*
X225400Y165500D02*
X226000D01*
X215500D02*
X223000D01*
X207300D02*
X210600D01*
X202800D02*
X204600D01*
X189000D02*
X191000D01*
X171000D02*
X173100D01*
X163000D02*
X166100D01*
X154100D02*
X157200D01*
X225400Y165600D02*
X226000D01*
X215100D02*
X223000D01*
X207300D02*
X210600D01*
X202800D02*
X204700D01*
X189000D02*
X191000D01*
X171100D02*
X173200D01*
X162900D02*
X166000D01*
X154100D02*
X157200D01*
X225400Y165700D02*
X226100D01*
X215000D02*
X223000D01*
X207300D02*
X210700D01*
X202800D02*
X204700D01*
X189000D02*
X191000D01*
X171100D02*
X173200D01*
X162800D02*
X165900D01*
X154200D02*
X157300D01*
X225400Y165800D02*
X226100D01*
X215000D02*
X223000D01*
X207300D02*
X210800D01*
X202700D02*
X204700D01*
X189000D02*
X191000D01*
X171100D02*
X173300D01*
X162800D02*
X165800D01*
X154300D02*
X157400D01*
X225400Y165900D02*
X226100D01*
X214900D02*
X223000D01*
X207300D02*
X210800D01*
X202700D02*
X204700D01*
X189000D02*
X191000D01*
X171100D02*
X173300D01*
X162700D02*
X165800D01*
X154400D02*
X157500D01*
X225400Y166000D02*
X226100D01*
X214900D02*
X223000D01*
X207200D02*
X210900D01*
X202700D02*
X204700D01*
X189000D02*
X191000D01*
X171200D02*
X173400D01*
X162600D02*
X165700D01*
X154400D02*
X157500D01*
X225500Y166100D02*
X226100D01*
X214800D02*
X223000D01*
X207200D02*
X211000D01*
X202700D02*
X204700D01*
X189000D02*
X191000D01*
X171200D02*
X173500D01*
X162500D02*
X165600D01*
X154500D02*
X157600D01*
X225500Y166200D02*
X226100D01*
X214800D02*
X223000D01*
X207200D02*
X211100D01*
X202700D02*
X204700D01*
X189000D02*
X191000D01*
X171300D02*
X173600D01*
X162500D02*
X165500D01*
X154600D02*
X157700D01*
X225500Y166300D02*
X226100D01*
X222800D02*
X222900D01*
X214700D02*
X222500D01*
X207200D02*
X211100D01*
X202600D02*
X204700D01*
X189000D02*
X191000D01*
X171300D02*
X173700D01*
X162400D02*
X165500D01*
X154700D02*
X157800D01*
X225500Y166400D02*
X226100D01*
X214600D02*
X222400D01*
X207200D02*
X211100D01*
X202600D02*
X204700D01*
X189000D02*
X191100D01*
X171300D02*
X173900D01*
X162300D02*
X165400D01*
X154700D02*
X157800D01*
X225600Y166500D02*
X226100D01*
X221300D02*
X222300D01*
X214600D02*
X220300D01*
X207200D02*
X211100D01*
X202500D02*
X204700D01*
X189000D02*
X191100D01*
X171400D02*
X174100D01*
X162200D02*
X165300D01*
X154800D02*
X157900D01*
X225600Y166600D02*
X226100D01*
X221400D02*
X222300D01*
X214400D02*
X220200D01*
X207200D02*
X211100D01*
X202300D02*
X204700D01*
X189000D02*
X191200D01*
X171400D02*
X174300D01*
X162200D02*
X165200D01*
X154900D02*
X158000D01*
X225600Y166700D02*
X226100D01*
X221500D02*
X222200D01*
X214000D02*
X220200D01*
X207200D02*
X211100D01*
X202100D02*
X204700D01*
X189100D02*
X191500D01*
X171500D02*
X174800D01*
X162100D02*
X165200D01*
X155000D02*
X158100D01*
X225600Y166800D02*
X226100D01*
X221700D02*
X222100D01*
X213700D02*
X220100D01*
X207200D02*
X211100D01*
X189100D02*
X204600D01*
X171500D02*
X186600D01*
X162000D02*
X165100D01*
X155000D02*
X158100D01*
X225600Y166900D02*
X226100D01*
X213600D02*
X220100D01*
X207200D02*
X210600D01*
X189100D02*
X204600D01*
X171600D02*
X186700D01*
X161900D02*
X165000D01*
X155100D02*
X158200D01*
X225600Y167000D02*
X226100D01*
X213500D02*
X220000D01*
X207200D02*
X210400D01*
X189100D02*
X204600D01*
X171700D02*
X186800D01*
X161900D02*
X164900D01*
X155200D02*
X158300D01*
X225600Y167100D02*
X226100D01*
X213400D02*
X220000D01*
X207200D02*
X210200D01*
X189200D02*
X204500D01*
X171700D02*
X186900D01*
X161800D02*
X164900D01*
X155300D02*
X158400D01*
X225600Y167200D02*
X226100D01*
X213300D02*
X219900D01*
X207200D02*
X210000D01*
X189200D02*
X204500D01*
X171800D02*
X187000D01*
X161700D02*
X164800D01*
X155300D02*
X158400D01*
X225600Y167300D02*
X226100D01*
X213300D02*
X219900D01*
X211000D02*
X211400D01*
X207200D02*
X209900D01*
X189300D02*
X204400D01*
X171900D02*
X187000D01*
X161600D02*
X164700D01*
X155400D02*
X158500D01*
X225600Y167400D02*
X226100D01*
X213200D02*
X219800D01*
X210700D02*
X211600D01*
X207200D02*
X209800D01*
X189300D02*
X204400D01*
X172000D02*
X187100D01*
X161600D02*
X164600D01*
X155500D02*
X158600D01*
X225600Y167500D02*
X226100D01*
X213100D02*
X219700D01*
X210500D02*
X211800D01*
X207200D02*
X209800D01*
X189400D02*
X204300D01*
X172000D02*
X187100D01*
X161500D02*
X164600D01*
X155600D02*
X158700D01*
X225600Y167600D02*
X226100D01*
X210500D02*
X219600D01*
X207200D02*
X209800D01*
X189400D02*
X204200D01*
X172100D02*
X187100D01*
X161400D02*
X164500D01*
X155600D02*
X158700D01*
X225600Y167700D02*
X226100D01*
X210500D02*
X219500D01*
X207200D02*
X209800D01*
X189500D02*
X204100D01*
X172200D02*
X187100D01*
X161300D02*
X164400D01*
X155700D02*
X158800D01*
X225600Y167800D02*
X226100D01*
X210500D02*
X219400D01*
X207200D02*
X209700D01*
X189600D02*
X204100D01*
X172300D02*
X187100D01*
X161300D02*
X164300D01*
X155800D02*
X158900D01*
X225600Y167900D02*
X226100D01*
X210500D02*
X219400D01*
X207200D02*
X209600D01*
X189700D02*
X204000D01*
X172400D02*
X187100D01*
X161200D02*
X164300D01*
X155900D02*
X159000D01*
X225600Y168000D02*
X226100D01*
X210500D02*
X219400D01*
X207200D02*
X209400D01*
X189800D02*
X203900D01*
X172600D02*
X187100D01*
X161100D02*
X164200D01*
X155900D02*
X159100D01*
X225600Y168100D02*
X226100D01*
X210500D02*
X219400D01*
X207200D02*
X209300D01*
X189900D02*
X203700D01*
X172700D02*
X187000D01*
X161000D02*
X164100D01*
X156000D02*
X159100D01*
X225600Y168200D02*
X226100D01*
X210500D02*
X219400D01*
X208700D02*
X209200D01*
X207200D02*
X208000D01*
X190000D02*
X203600D01*
X172800D02*
X187000D01*
X161000D02*
X164000D01*
X156100D02*
X159200D01*
X225500Y168300D02*
X226100D01*
X209800D02*
X219400D01*
X207200D02*
X207800D01*
X190100D02*
X203500D01*
X173000D02*
X186900D01*
X160900D02*
X164000D01*
X156100D02*
X159300D01*
X225500Y168400D02*
X226100D01*
X209800D02*
X219400D01*
X207200D02*
X207800D01*
X190300D02*
X203300D01*
X173200D02*
X186900D01*
X160800D02*
X163900D01*
X156200D02*
X159400D01*
X225500Y168500D02*
X226100D01*
X209800D02*
X219400D01*
X207200D02*
X207800D01*
X190500D02*
X203100D01*
X173400D02*
X186800D01*
X160700D02*
X163800D01*
X156300D02*
X159500D01*
X225500Y168600D02*
X226100D01*
X209900D02*
X219400D01*
X207200D02*
X207800D01*
X190700D02*
X202800D01*
X173700D02*
X186600D01*
X160600D02*
X163700D01*
X156400D02*
X159600D01*
X225400Y168700D02*
X226100D01*
X209900D02*
X219400D01*
X207200D02*
X207800D01*
X191100D02*
X202400D01*
X174100D02*
X186400D01*
X160500D02*
X163700D01*
X156400D02*
X159700D01*
X225400Y168800D02*
X226100D01*
X210000D02*
X219400D01*
X208800D02*
X209300D01*
X207200D02*
X207800D01*
X160300D02*
X163600D01*
X156500D02*
X159900D01*
X225400Y168900D02*
X226100D01*
X210000D02*
X219400D01*
X208700D02*
X209300D01*
X207200D02*
X207800D01*
X156600D02*
X163500D01*
X225400Y169000D02*
X226100D01*
X208600D02*
X219400D01*
X207200D02*
X207800D01*
X156700D02*
X163400D01*
X225400Y169100D02*
X226000D01*
X208500D02*
X219400D01*
X207300D02*
X207800D01*
X156700D02*
X163400D01*
X225400Y169200D02*
X226000D01*
X208600D02*
X219400D01*
X207300D02*
X207800D01*
X156800D02*
X163300D01*
X225400Y169300D02*
X226000D01*
X208600D02*
X219400D01*
X207300D02*
X207800D01*
X156900D02*
X163200D01*
X225400Y169400D02*
X226000D01*
X208600D02*
X219400D01*
X207300D02*
X207900D01*
X157000D02*
X163100D01*
X225300Y169500D02*
X226000D01*
X208600D02*
X219400D01*
X207300D02*
X207900D01*
X157000D02*
X163100D01*
X225300Y169600D02*
X225900D01*
X208600D02*
X219500D01*
X207300D02*
X207900D01*
X157100D02*
X163000D01*
X225300Y169700D02*
X225900D01*
X210800D02*
X219600D01*
X208500D02*
X210600D01*
X207400D02*
X208000D01*
X157200D02*
X162900D01*
X225200Y169800D02*
X225900D01*
X210900D02*
X219600D01*
X208500D02*
X210500D01*
X207400D02*
X208000D01*
X157300D02*
X162800D01*
X225200Y169900D02*
X225900D01*
X210900D02*
X219700D01*
X208500D02*
X210500D01*
X207400D02*
X208000D01*
X157300D02*
X162800D01*
X225200Y170000D02*
X225800D01*
X210900D02*
X219800D01*
X208500D02*
X210400D01*
X207500D02*
X208000D01*
X157400D02*
X162700D01*
X225200Y170100D02*
X225800D01*
X210900D02*
X219900D01*
X208600D02*
X210400D01*
X207500D02*
X208100D01*
X157500D02*
X162600D01*
X225100Y170200D02*
X225800D01*
X210900D02*
X220000D01*
X209400D02*
X210300D01*
X208800D02*
X209000D01*
X207500D02*
X208100D01*
X157600D02*
X162500D01*
X225100Y170300D02*
X225800D01*
X210900D02*
X220200D01*
X209600D02*
X210300D01*
X207500D02*
X208100D01*
X157700D02*
X162500D01*
X225100Y170400D02*
X225700D01*
X210800D02*
X220200D01*
X207600D02*
X208200D01*
X157700D02*
X162400D01*
X225000Y170500D02*
X225700D01*
X210800D02*
X220200D01*
X207600D02*
X208200D01*
X157800D02*
X162300D01*
X225000Y170600D02*
X225600D01*
X210800D02*
X220200D01*
X207600D02*
X208200D01*
X158000D02*
X162200D01*
X224900Y170700D02*
X225600D01*
X224000D02*
X224300D01*
X210800D02*
X220200D01*
X207700D02*
X208300D01*
X158100D02*
X162000D01*
X224900Y170800D02*
X225600D01*
X223700D02*
X224400D01*
X210900D02*
X220300D01*
X207700D02*
X208300D01*
X158200D02*
X161900D01*
X224800Y170900D02*
X225500D01*
X223400D02*
X224400D01*
X211000D02*
X220400D01*
X207700D02*
X208400D01*
X158400D02*
X161800D01*
X224800Y171000D02*
X225500D01*
X223100D02*
X224400D01*
X211100D02*
X220600D01*
X207800D02*
X208400D01*
X158600D02*
X161600D01*
X224800Y171100D02*
X225500D01*
X223000D02*
X224500D01*
X211200D02*
X221200D01*
X207800D02*
X208500D01*
X158800D02*
X161400D01*
X224700Y171200D02*
X225400D01*
X223000D02*
X224500D01*
X211300D02*
X221400D01*
X207900D02*
X208500D01*
X159000D02*
X161100D01*
X223000Y171300D02*
X225400D01*
X211400D02*
X221500D01*
X207900D02*
X208500D01*
X159400D02*
X160700D01*
X223000Y171400D02*
X225300D01*
X211400D02*
X221600D01*
X208000D02*
X208600D01*
X223000Y171500D02*
X225300D01*
X221200D02*
X221800D01*
X211500D02*
X220700D01*
X208000D02*
X208600D01*
X223000Y171600D02*
X225100D01*
X221300D02*
X221900D01*
X211500D02*
X220600D01*
X208000D02*
X208700D01*
X221300Y171700D02*
X225100D01*
X211500D02*
X220500D01*
X208100D02*
X208800D01*
X224400Y171800D02*
X225000D01*
X221400D02*
X224300D01*
X211500D02*
X220400D01*
X208100D02*
X208800D01*
X224300Y171900D02*
X225000D01*
X221500D02*
X224100D01*
X211500D02*
X220300D01*
X208200D02*
X208900D01*
X224300Y172000D02*
X224900D01*
X221500D02*
X224000D01*
X211600D02*
X220300D01*
X208300D02*
X208900D01*
X224200Y172100D02*
X224900D01*
X221600D02*
X223800D01*
X211800D02*
X220300D01*
X208300D02*
X209000D01*
X224200Y172200D02*
X224900D01*
X221700D02*
X223600D01*
X211800D02*
X220300D01*
X208400D02*
X209100D01*
X224100Y172300D02*
X224800D01*
X222000D02*
X223400D01*
X211800D02*
X220300D01*
X208400D02*
X209100D01*
X224000Y172400D02*
X224800D01*
X222000D02*
X223200D01*
X211800D02*
X220400D01*
X208500D02*
X209200D01*
X224000Y172500D02*
X224700D01*
X222000D02*
X223100D01*
X211800D02*
X220400D01*
X208600D02*
X209300D01*
X223900Y172600D02*
X224700D01*
X222100D02*
X222600D01*
X213200D02*
X221400D01*
X211800D02*
X212600D01*
X208600D02*
X209300D01*
X223800Y172700D02*
X224600D01*
X213300D02*
X221500D01*
X212000D02*
X212500D01*
X208700D02*
X209400D01*
X223700Y172800D02*
X224500D01*
X213400D02*
X221500D01*
X212200D02*
X212400D01*
X208800D02*
X209500D01*
X223700Y172900D02*
X224500D01*
X213500D02*
X221500D01*
X208800D02*
X209600D01*
X223600Y173000D02*
X224400D01*
X213400D02*
X221500D01*
X208900D02*
X209600D01*
X223500Y173100D02*
X224300D01*
X213300D02*
X221500D01*
X209000D02*
X209700D01*
X223400Y173200D02*
X224200D01*
X213200D02*
X221400D01*
X209100D02*
X209800D01*
X223300Y173300D02*
X224200D01*
X212600D02*
X221300D01*
X209100D02*
X209900D01*
X223200Y173400D02*
X224100D01*
X213100D02*
X221200D01*
X209200D02*
X210000D01*
X223100Y173500D02*
X224000D01*
X213300D02*
X221100D01*
X209300D02*
X210100D01*
X223000Y173600D02*
X223900D01*
X213400D02*
X221900D01*
X209400D02*
X210200D01*
X222900Y173700D02*
X223800D01*
X213500D02*
X222000D01*
X209500D02*
X210300D01*
X222800Y173800D02*
X223700D01*
X221800D02*
X222100D01*
X213800D02*
X220800D01*
X209600D02*
X210400D01*
X222700Y173900D02*
X223700D01*
X221800D02*
X222200D01*
X214100D02*
X220800D01*
X209700D02*
X210500D01*
X222600Y174000D02*
X223600D01*
X221800D02*
X222300D01*
X214100D02*
X220900D01*
X209800D02*
X210600D01*
X221800Y174100D02*
X223500D01*
X214000D02*
X220900D01*
X209900D02*
X210700D01*
X221800Y174200D02*
X223400D01*
X214000D02*
X220900D01*
X210000D02*
X210800D01*
X221800Y174300D02*
X223300D01*
X214000D02*
X221000D01*
X210100D02*
X210900D01*
X221900Y174400D02*
X223200D01*
X213900D02*
X221000D01*
X210200D02*
X211000D01*
X221900Y174500D02*
X223000D01*
X213800D02*
X220900D01*
X210300D02*
X211200D01*
X221900Y174600D02*
X222900D01*
X213700D02*
X220900D01*
X210400D02*
X211300D01*
X221700Y174700D02*
X222700D01*
X213500D02*
X220900D01*
X210500D02*
X211400D01*
X221600Y174800D02*
X222500D01*
X213300D02*
X220800D01*
X210600D02*
X211600D01*
X221400Y174900D02*
X222400D01*
X213300D02*
X220800D01*
X210700D02*
X211700D01*
X221300Y175000D02*
X222300D01*
X213300D02*
X220800D01*
X210900D02*
X211900D01*
X221100Y175100D02*
X222300D01*
X213200D02*
X220700D01*
X211000D02*
X212000D01*
X220900Y175200D02*
X222100D01*
X213200D02*
X220700D01*
X211100D02*
X212200D01*
X220800Y175300D02*
X222000D01*
X215500D02*
X220700D01*
X213100D02*
X214900D01*
X211300D02*
X212400D01*
X215500Y175400D02*
X221900D01*
X213100D02*
X214800D01*
X211400D02*
X212600D01*
X215500Y175500D02*
X221700D01*
X213100D02*
X214700D01*
X211600D02*
X212800D01*
X215500Y175600D02*
X221600D01*
X211700D02*
X214600D01*
X215500Y175700D02*
X221300D01*
X211900D02*
X214500D01*
X215600Y175800D02*
X221100D01*
X212100D02*
X214500D01*
X215700Y175900D02*
X220900D01*
X212300D02*
X214400D01*
X215800Y176000D02*
X220600D01*
X212500D02*
X214300D01*
X215900Y176100D02*
X220300D01*
X212700D02*
X214800D01*
X216000Y176200D02*
X220100D01*
X213200D02*
X215400D01*
X213500Y176300D02*
X219800D01*
X213800Y176400D02*
X219500D01*
X214000Y176500D02*
X219200D01*
X214200Y176600D02*
X218800D01*
X214600Y176700D02*
X218400D01*
X215300Y176800D02*
X217800D01*
M02*
