G04 Layer_Physical_Order=2*
G04 Layer_Color=16711680*
%FSLAX25Y25*%
%MOIN*%
G70*
G01*
G75*
%ADD10C,0.03000*%
%ADD11R,0.06299X0.06299*%
%ADD12C,0.06299*%
%ADD13C,0.05906*%
%ADD14R,0.05906X0.05906*%
%ADD15R,0.05906X0.05906*%
%ADD16O,0.07874X0.03937*%
%ADD17O,0.07874X0.03937*%
%ADD18C,0.07087*%
%ADD19C,0.06299*%
%ADD20C,0.11811*%
%ADD21C,0.05984*%
%ADD22R,0.05984X0.05984*%
%ADD23C,0.06000*%
D10*
X28543Y174803D02*
X44291D01*
X110236Y151181D02*
X125984D01*
X103110Y103110D02*
X113110D01*
X161417Y49055D02*
X192913D01*
X28543Y159843D02*
X44291D01*
X60039D01*
X118110Y63976D02*
X137300D01*
X142221Y59055D01*
X161417D01*
X192913D01*
X68740Y11811D02*
X75251Y5300D01*
X116599D01*
X123110Y11811D01*
X113110Y133110D02*
X123110Y123110D01*
Y103110D02*
Y123110D01*
X184869Y77100D02*
X192913Y69055D01*
X118700Y77100D02*
X184869D01*
X111600Y70000D02*
X118700Y77100D01*
X111600Y60644D02*
Y70000D01*
Y60644D02*
X118110Y54134D01*
X78740Y11811D02*
Y27000D01*
X143110Y103110D02*
X150100Y110100D01*
X186700Y88600D02*
X199600Y75700D01*
Y55742D02*
Y75700D01*
X192913Y49055D02*
X199600Y55742D01*
X174055Y184803D02*
X186102Y196850D01*
X101024Y184803D02*
X174055D01*
X94488Y191339D02*
X101024Y184803D01*
X199724Y196850D02*
Y210525D01*
X194997Y215253D02*
X199724Y210525D01*
X149898Y215253D02*
X194997D01*
X125984Y191339D02*
X149898Y215253D01*
X103110Y11811D02*
X109699Y18400D01*
X163110Y133110D02*
X169600Y139600D01*
X209724Y196850D02*
Y220685D01*
X206000Y224409D02*
X209724Y220685D01*
X123110Y224409D02*
X206000D01*
X60039Y159843D02*
X68701Y151181D01*
X94488D01*
X110236Y191339D02*
X120998Y202100D01*
X125600D01*
X173110Y130000D02*
X209600Y93510D01*
X173110Y130000D02*
Y133110D01*
X44291Y174803D02*
X51795Y167300D01*
X94117D01*
X110236Y151181D01*
X109699Y18400D02*
X194400D01*
X214600Y38600D01*
X140969Y5300D02*
X147480Y11811D01*
X128000Y5300D02*
X140969D01*
X209600Y42400D02*
Y93510D01*
X185246Y110100D02*
X204600Y90746D01*
X150100Y110100D02*
X185246D01*
X204600Y47400D02*
Y90746D01*
X187476Y139600D02*
X214600Y112476D01*
X169600Y139600D02*
X187476D01*
X214600Y38600D02*
Y112476D01*
X123110Y10190D02*
Y11811D01*
Y10190D02*
X128000Y5300D01*
X41000Y51236D02*
Y95319D01*
X25197Y35433D02*
X41000Y51236D01*
X31496Y104823D02*
X41000Y95319D01*
X17323Y59055D02*
X25197Y66929D01*
X38386Y193898D02*
Y219488D01*
X20669Y193898D02*
Y219488D01*
Y167717D02*
Y193898D01*
Y167717D02*
X28543Y159843D01*
X25043Y124945D02*
X31496Y131398D01*
X25043Y82677D02*
Y124945D01*
X25197Y66929D02*
Y82677D01*
X103110Y96890D02*
Y103110D01*
Y96890D02*
X111400Y88600D01*
X186700D01*
X49843Y185000D02*
X60039Y174803D01*
X34000Y185000D02*
X49843D01*
X29000Y190000D02*
X34000Y185000D01*
X29000Y190000D02*
Y223000D01*
X37000Y231000D01*
X22000Y24000D02*
X45000D01*
X8000Y38000D02*
X22000Y24000D01*
X8000Y38000D02*
Y49732D01*
X17323Y59055D01*
X38386Y193898D02*
X78898D01*
X83200Y198200D01*
X97800D01*
X104661Y191339D01*
X110236D01*
X119000Y25000D02*
Y25500D01*
X73228Y82677D02*
X87906Y68000D01*
X89000D01*
X119000Y25500D02*
X121500Y28000D01*
X195200D02*
X209600Y42400D01*
X121500Y28000D02*
X195200D01*
X114729Y35000D02*
X151000D01*
X88740Y11811D02*
X91540D01*
X114729Y35000D01*
X78740Y27000D02*
X93740Y42000D01*
X199200D01*
X204600Y47400D01*
X45000Y24000D02*
X68000Y47000D01*
X159362D01*
X161417Y49055D01*
X28543Y139843D02*
Y159843D01*
X11811Y123110D02*
X28543Y139843D01*
X130000Y140000D02*
Y147165D01*
X123110Y133110D02*
X130000Y140000D01*
X125984Y151181D02*
X130000Y147165D01*
X94488Y151181D02*
X112559Y133110D01*
X113110D01*
X60039Y174803D02*
X168797D01*
X194100Y149500D01*
X43803Y231000D02*
X68110Y206693D01*
X37000Y231000D02*
X43803D01*
X79921Y206693D02*
X95394D01*
X113110Y224410D01*
D11*
X192913Y49055D02*
D03*
X161417Y69055D02*
D03*
D12*
X192913Y59055D02*
D03*
Y69055D02*
D03*
X161417Y59055D02*
D03*
Y49055D02*
D03*
D13*
X118110Y63976D02*
D03*
X173110Y133110D02*
D03*
X163110D02*
D03*
X153110D02*
D03*
X143110D02*
D03*
X133110D02*
D03*
X123110D02*
D03*
X113110D02*
D03*
X103110D02*
D03*
X93110D02*
D03*
X83110D02*
D03*
X73110D02*
D03*
X63110D02*
D03*
X53110D02*
D03*
Y103110D02*
D03*
X63110D02*
D03*
X73110D02*
D03*
X83110D02*
D03*
X93110D02*
D03*
X103110D02*
D03*
X113110D02*
D03*
X123110D02*
D03*
X133110D02*
D03*
X143110D02*
D03*
X153110D02*
D03*
X163110D02*
D03*
X173110D02*
D03*
X183110D02*
D03*
X79921Y206693D02*
D03*
X68110D02*
D03*
X186102Y196850D02*
D03*
X209724D02*
D03*
X28740Y174803D02*
D03*
Y159843D02*
D03*
X44094D02*
D03*
Y174803D02*
D03*
X59842D02*
D03*
Y159843D02*
D03*
X94488Y151181D02*
D03*
Y191339D02*
D03*
X110236Y151181D02*
D03*
Y191339D02*
D03*
X141732Y151181D02*
D03*
Y191339D02*
D03*
X125984Y151181D02*
D03*
Y191339D02*
D03*
X20669Y219488D02*
D03*
Y193898D02*
D03*
X38386D02*
D03*
X31496Y131398D02*
D03*
Y104823D02*
D03*
D14*
X118110Y54134D02*
D03*
X38386Y219488D02*
D03*
D15*
X183110Y133110D02*
D03*
X56299Y206693D02*
D03*
D16*
X11811Y123110D02*
D03*
Y113110D02*
D03*
D17*
Y118110D02*
D03*
D18*
X17323Y59055D02*
D03*
X25197Y35433D02*
D03*
Y82677D02*
D03*
X73228Y35433D02*
D03*
Y82677D02*
D03*
D19*
X176102Y196850D02*
D03*
X199724D02*
D03*
D20*
X9843Y9843D02*
D03*
X226378Y226378D02*
D03*
D21*
X123110Y224410D02*
D03*
X103110Y11811D02*
D03*
X113110D02*
D03*
X123110D02*
D03*
X78740D02*
D03*
X68740D02*
D03*
X157480D02*
D03*
X147480D02*
D03*
D22*
X113110Y224410D02*
D03*
X133110Y11811D02*
D03*
X88740D02*
D03*
X167480D02*
D03*
D23*
X125600Y202100D02*
D03*
X194100Y149500D02*
D03*
X119000Y25000D02*
D03*
X89000Y68000D02*
D03*
X151000Y35000D02*
D03*
M02*
